<?xml version="1.0" encoding="UTF-8" standalone="no"?>
<svg width="150px" height="150px" viewBox="0 0 150 150" version="1.1" xmlns="http://www.w3.org/2000/svg" xmlns:xlink="http://www.w3.org/1999/xlink">
    <!-- Generator: Sketch 48.2 (47327) - http://www.bohemiancoding.com/sketch -->
    <title>Artboard 2</title>
    <desc>Created with Sketch.</desc>
    <defs></defs>
    <g id="Page-1" stroke="none" stroke-width="1" fill="none" fill-rule="evenodd">
        <g id="Artboard-2">
            <g id="Group-2" transform="translate(39.000000, 27.000000)">
                <path d="M20.8027513,-1.8702853e-16 L54.5243508,1.07837214e-15 C56.0809985,7.92420607e-16 56.6466337,0.129856741 57.2371066,0.388984536 C57.8275795,0.648112331 58.3158167,1.03651118 58.7010819,1.5535954 C59.0863472,2.07067961 59.340067,2.59263011 59.690094,4.10941386 L72.6111282,60.100562 C73.1078741,62.2531276 71.765567,64.4008189 69.6130014,64.8975648 C69.3180308,64.9656349 69.0162863,65 68.7135634,65 L4,65 C1.790861,65 8.21565038e-15,63.209139 7.99360578e-15,61 C7.99360578e-15,60.6392471 0.0488024964,60.2801521 0.145079912,59.9324837 L15.6579761,3.9136918 C16.0621466,2.4541873 16.3249631,1.95645151 16.7135801,1.46489956 C17.1021971,0.973347608 17.583621,0.607122718 18.1610581,0.363785816 C18.7384952,0.120448914 19.2883183,9.11682889e-17 20.8027513,-1.8702853e-16 Z" id="Rectangle-13" fill="#EB5127"></path>
                <circle id="Oval-9" fill="#EE6E4B" cx="36" cy="85" r="11"></circle>
            </g>
        </g>
    </g>
</svg>